<?xml version="1.0" encoding="utf-8"?>
<!-- Generator: Adobe Illustrator 18.1.1, SVG Export Plug-In . SVG Version: 6.00 Build 0)  -->
<svg version="1.1" id="Layer_1" xmlns="http://www.w3.org/2000/svg" xmlns:xlink="http://www.w3.org/1999/xlink" x="0px" y="0px"
	 viewBox="0 0 70.3 26.2" enable-background="new 0 0 70.3 26.2" xml:space="preserve">
<g>
	<path fill="#D8D8D8" d="M16.6,4.2c1.9,1,3.3,2.3,4.3,4.1c1,1.8,1.5,3.8,1.5,6c0,2.2-0.5,4.2-1.6,6c-1,1.8-2.5,3.1-4.4,4.1
		c-1.9,1-4,1.5-6.4,1.5H0.4V2.7h9.8C12.6,2.7,14.7,3.2,16.6,4.2z M13.8,20.5c1-0.6,1.8-1.4,2.4-2.5c0.6-1.1,0.9-2.3,0.9-3.7
		c0-1.4-0.3-2.6-0.9-3.7c-0.6-1.1-1.4-2-2.5-2.6c-1-0.6-2.2-0.9-3.6-0.9H5.6v14.4h4.7C11.7,21.5,12.8,21.1,13.8,20.5z"/>
	<path fill="#D8D8D8" d="M30.3,0.9C30.8,1.5,31,2.2,31,3c0,0.8-0.3,1.5-0.8,2.1c-0.5,0.5-1.2,0.8-2,0.8c-0.8,0-1.4-0.3-2-0.8
		c-0.5-0.5-0.8-1.2-0.8-2c0-0.8,0.3-1.5,0.8-2.1c0.5-0.5,1.2-0.8,2-0.8C29.1,0.2,29.7,0.4,30.3,0.9z M25.7,8.1h5.1v17.8h-5.1V8.1z"
		/>
	<path fill="#D8D8D8" d="M33.2,8.1l5.3,0l4.2,13l4.2-13h5.1l-6.7,17.8h-5.2L33.2,8.1z"/>
	<path fill="#D8D8D8" d="M67.7,10.4c1.5,1.7,2.2,4,2.2,6.9c0,0.5,0,0.9,0,1.2H57.1c0.3,1.1,0.8,2,1.7,2.6c0.8,0.6,1.8,0.9,2.9,0.9
		c0.8,0,1.6-0.2,2.4-0.5c0.8-0.3,1.5-0.8,2.1-1.4l2.7,2.7c-0.9,1-2,1.8-3.3,2.3c-1.3,0.5-2.7,0.8-4.3,0.8c-1.9,0-3.5-0.4-4.9-1.1
		c-1.4-0.7-2.5-1.8-3.2-3.2C52.4,20.4,52,18.8,52,17c0-1.8,0.4-3.4,1.2-4.8c0.8-1.4,1.9-2.4,3.2-3.2c1.4-0.8,3-1.1,4.8-1.1
		C64,7.9,66.2,8.7,67.7,10.4z M65.1,15.5c0-1.2-0.4-2.1-1.1-2.8c-0.7-0.7-1.6-1.1-2.8-1.1c-1.1,0-2,0.3-2.8,1
		c-0.7,0.7-1.2,1.6-1.4,2.8H65.1z"/>
</g>
</svg>
